{
    "asset" : {
        "generator" : "Khronos glTF Blender I/O v1.7.33",
        "version" : "2.0"
    },
    "scene" : 0,
    "scenes" : [
        {
            "name" : "Scene",
            "nodes" : [
                0
            ]
        }
    ],
    "nodes" : [
        {
            "mesh" : 0,
            "name" : "Plane"
        }
    ],
    "meshes" : [
        {
            "name" : "Plane.001",
            "primitives" : [
                {
                    "attributes" : {
                        "POSITION" : 0,
                        "NORMAL" : 1,
                        "TEXCOORD_0" : 2,
                        "COLOR_0" : 3
                    },
                    "indices" : 4
                }
            ]
        }
    ],
    "accessors" : [
        {
            "bufferView" : 0,
            "componentType" : 5126,
            "count" : 2787,
            "max" : [
                5,
                0,
                5
            ],
            "min" : [
                -5,
                0,
                -5
            ],
            "type" : "VEC3"
        },
        {
            "bufferView" : 1,
            "componentType" : 5126,
            "count" : 2787,
            "type" : "VEC3"
        },
        {
            "bufferView" : 2,
            "componentType" : 5126,
            "count" : 2787,
            "type" : "VEC2"
        },
        {
            "bufferView" : 3,
            "componentType" : 5123,
            "count" : 2787,
            "normalized" : true,
            "type" : "VEC4"
        },
        {
            "bufferView" : 4,
            "componentType" : 5123,
            "count" : 15606,
            "type" : "SCALAR"
        }
    ],
    "bufferViews" : [
        {
            "buffer" : 0,
            "byteLength" : 33444,
            "byteOffset" : 0
        },
        {
            "buffer" : 0,
            "byteLength" : 33444,
            "byteOffset" : 33444
        },
        {
            "buffer" : 0,
            "byteLength" : 22296,
            "byteOffset" : 66888
        },
        {
            "buffer" : 0,
            "byteLength" : 22296,
            "byteOffset" : 89184
        },
        {
            "buffer" : 0,
            "byteLength" : 31212,
            "byteOffset" : 111480
        }
    ],
    "buffers" : [
        {
            "byteLength" : 142692,
            "uri" : "data:application/octet-stream;base64,"
        }
    ]
}
